<?xml version="1.0" encoding="UTF-8" standalone="no"?>
<!-- Created with Inkscape (http://www.inkscape.org/) -->

<svg
   width="178mm"
   height="50mm"
   viewBox="0 0 178 50"
   version="1.1"
   id="svg1"
   inkscape:version="1.4-dev (1:1.4.0-dev+202403210151+2fe0648968)"
   sodipodi:docname="logo.svg"
   xmlns:inkscape="http://www.inkscape.org/namespaces/inkscape"
   xmlns:sodipodi="http://sodipodi.sourceforge.net/DTD/sodipodi-0.dtd"
   xmlns="http://www.w3.org/2000/svg"
   xmlns:svg="http://www.w3.org/2000/svg">
  <sodipodi:namedview
     id="namedview1"
     pagecolor="#ffffff"
     bordercolor="#000000"
     borderopacity="0.25"
     inkscape:showpageshadow="2"
     inkscape:pageopacity="0.0"
     inkscape:pagecheckerboard="0"
     inkscape:deskcolor="#d1d1d1"
     inkscape:document-units="mm"
     inkscape:zoom="0.92221485"
     inkscape:cx="286.26735"
     inkscape:cy="130.12152"
     inkscape:window-width="1920"
     inkscape:window-height="940"
     inkscape:window-x="0"
     inkscape:window-y="0"
     inkscape:window-maximized="1"
     inkscape:current-layer="layer1" />
  <defs
     id="defs1" />
  <g
     inkscape:label="Layer 1"
     inkscape:groupmode="layer"
     id="layer1">
    <g
       id="g2"
       style="clip-rule:evenodd;fill-rule:evenodd;image-rendering:optimizeQuality;shape-rendering:geometricPrecision;text-rendering:geometricPrecision"
       transform="matrix(0.03280036,0,0,0.03280036,7.9185239,-6.4781385)">
      <path
         style="opacity:1"
         fill="#030303"
         d="m 1004.5,414.5 c 5.44,1.384 11.11,2.05 17,2 1,0 2,0 3,0 5.46,1.451 11.13,2.451 17,3 103.46,16.246 194.8,58.079 274,125.5 -7.49,8.491 -15.32,16.658 -23.5,24.5 -89.28,-74.025 -192.11,-114.359 -308.5,-121 -3.462,-0.982 -7.129,-1.315 -11,-1 0,47.333 0,94.667 0,142 3.667,0 7.333,0 11,0 77.11,5.909 146.11,32.409 207,79.5 1.4,1.062 2.4,2.395 3,4 -5.17,6.5 -11,12.333 -17.5,17.5 -56.54,-44.132 -120.7,-69.132 -192.5,-75 -3.798,-0.983 -7.798,-1.317 -12,-1 -0.332,44.503 10e-4,88.836 1,133 2.787,0.977 5.787,1.31 9,1 0.667,0 1.333,0 2,0 3.127,1.081 6.46,1.747 10,2 4.617,0.987 9.28,1.654 14,2 2.01,1.424 4.35,2.09 7,2 24.06,6.693 46.39,17.193 67,31.5 1.51,0.837 2.01,2.004 1.5,3.5 -5.53,5.198 -10.7,10.698 -15.5,16.5 -1,0.667 -2,0.667 -3,0 -25.19,-16.898 -52.85,-27.398 -83,-31.5 -3.125,-0.979 -6.458,-1.313 -10,-1 -0.332,46.17 10e-4,92.17 1,138 0.342,0.838 1.008,1.172 2,1 3.546,1.785 7.212,2.952 11,3.5 146,-152.337 291.67,-305.004 437,-458 8.98,-4.845 15.82,-2.678 20.5,6.5 1.01,5.313 -0.32,9.98 -4,14 -145.36,151.697 -290.36,303.697 -435,456 0.49,3.353 1.33,6.687 2.5,10 -0.17,0.992 0.16,1.658 1,2 45.83,0.999 91.83,1.332 138,1 0.3,-2.559 -0.03,-4.893 -1,-7 -3.19,-33.858 -14.86,-64.358 -35,-91.5 5.47,-6.638 11.47,-12.804 18,-18.5 26.66,33.963 41.33,72.63 44,116 44.16,0.999 88.5,1.332 133,1 0.31,-3.213 -0.02,-6.213 -1,-9 -0.85,-22.083 -4.18,-43.75 -10,-65 0.09,-2.652 -0.58,-4.985 -2,-7 0.09,-2.652 -0.58,-4.985 -2,-7 -10.16,-34.982 -25.66,-67.315 -46.5,-97 -7.63,-9.761 -15.13,-19.594 -22.5,-29.5 5.32,-5.988 10.65,-11.988 16,-18 0.67,-0.667 1.33,-0.667 2,0 55.81,63.876 86.14,138.376 91,223.5 0,2.667 0,5.333 0,8 47.33,0 94.67,0 142,0 0.32,-5.858 -0.01,-11.525 -1,-17 -8.02,-121.654 -52.86,-227.321 -134.5,-317 -0.67,-0.667 -0.67,-1.333 0,-2 7.53,-7.197 14.7,-14.697 21.5,-22.5 1,-0.667 2,-0.667 3,0 75.07,81.59 121.4,177.423 139,287.5 -0.14,4.914 0.53,9.581 2,14 18.58,174.08 -31.58,324.75 -150.5,452 -114.74,113.41 -253.24,168.24 -415.5,164.5 -175.633,-11.38 -315.799,-87.22 -420.5,-227.5 -49.722,-70.48 -81.555,-148.48 -95.5,-234 -0.439,-5.89 -1.439,-11.56 -3,-17 -17.855,-171.934 31.645,-320.934 148.5,-447 121.016,-121.372 267.516,-176.705 439.5,-166 z"
         id="path2" />
    </g>
    <g
       id="g3"
       style="clip-rule:evenodd;fill-rule:evenodd;image-rendering:optimizeQuality;shape-rendering:geometricPrecision;text-rendering:geometricPrecision"
       transform="matrix(0.03280036,0,0,0.03280036,7.9185239,-6.4781385)">
      <path
         style="opacity:1"
         fill="#989898"
         d="m 1004.5,414.5 c 5.89,-0.05 11.56,0.616 17,2 -5.89,0.05 -11.56,-0.616 -17,-2 z"
         id="path3" />
    </g>
    <g
       id="g4"
       style="clip-rule:evenodd;fill-rule:evenodd;image-rendering:optimizeQuality;shape-rendering:geometricPrecision;text-rendering:geometricPrecision"
       transform="matrix(0.03280036,0,0,0.03280036,7.9185239,-6.4781385)">
      <path
         style="opacity:1"
         fill="#a0a0a0"
         d="m 1024.5,416.5 c 6,-0.167 11.67,0.833 17,3 -5.87,-0.549 -11.54,-1.549 -17,-3 z"
         id="path4" />
    </g>
    <g
       id="g5"
       style="clip-rule:evenodd;fill-rule:evenodd;image-rendering:optimizeQuality;shape-rendering:geometricPrecision;text-rendering:geometricPrecision"
       transform="matrix(0.03280036,0,0,0.03280036,7.9185239,-6.4781385)">
      <path
         style="opacity:1"
         fill="#fefefe"
         d="m 928.5,448.5 c 5.667,0 11.333,0 17,0 0,46.667 0,93.333 0,140 -3.542,-0.313 -6.875,0.021 -10,1 -55.076,3.219 -106.743,18.052 -155,44.5 -10.559,6.735 -21.225,13.235 -32,19.5 -36.104,-22.514 -68.604,-18.18 -97.5,13 -18.288,28.295 -17.788,56.295 1.5,84 -33.355,49.06 -53.688,103.06 -61,162 -1.512,5.429 -2.179,11.096 -2,17 -0.829,4.953 -1.163,9.953 -1,15 -46.595,0.995 -93.261,1.328 -140,1 0.451,-10.329 0.784,-20.662 1,-31 16.299,-154.482 86.299,-277.982 210,-370.5 71.764,-51.697 151.764,-82.53 240,-92.5 4.914,0.138 9.581,-0.528 14,-2 4.982,-0.553 9.982,-0.887 15,-1 z"
         id="path5" />
    </g>
    <g
       id="g6"
       style="clip-rule:evenodd;fill-rule:evenodd;image-rendering:optimizeQuality;shape-rendering:geometricPrecision;text-rendering:geometricPrecision"
       transform="matrix(0.03280036,0,0,0.03280036,7.9185239,-6.4781385)">
      <path
         style="opacity:1"
         fill="#c1c1c1"
         d="m 913.5,449.5 c -4.419,1.472 -9.086,2.138 -14,2 4.4,-1.604 9.066,-2.271 14,-2 z"
         id="path6" />
    </g>
    <g
       id="g7"
       style="clip-rule:evenodd;fill-rule:evenodd;image-rendering:optimizeQuality;shape-rendering:geometricPrecision;text-rendering:geometricPrecision"
       transform="matrix(0.03280036,0,0,0.03280036,7.9185239,-6.4781385)">
      <path
         style="opacity:1"
         fill="#c7c7c7"
         d="m 928.5,448.5 c 5.81,-0.99 11.81,-1.323 18,-1 0,47.333 0,94.667 0,142 -3.667,0 -7.333,0 -11,0 3.125,-0.979 6.458,-1.313 10,-1 0,-46.667 0,-93.333 0,-140 -5.667,0 -11.333,0 -17,0 z"
         id="path7" />
    </g>
    <g
       id="g8"
       style="clip-rule:evenodd;fill-rule:evenodd;image-rendering:optimizeQuality;shape-rendering:geometricPrecision;text-rendering:geometricPrecision"
       transform="matrix(0.03280036,0,0,0.03280036,7.9185239,-6.4781385)">
      <path
         style="opacity:1"
         fill="#d6d6d6"
         d="m 983.5,448.5 c -3.333,0 -6.667,0 -10,0 0,46.667 0,93.333 0,140 3.542,-0.313 6.875,0.021 10,1 -3.667,0 -7.333,0 -11,0 0,-47.333 0,-94.667 0,-142 3.871,-0.315 7.538,0.018 11,1 z"
         id="path8" />
    </g>
    <g
       id="g9"
       style="clip-rule:evenodd;fill-rule:evenodd;image-rendering:optimizeQuality;shape-rendering:geometricPrecision;text-rendering:geometricPrecision"
       transform="matrix(0.03280036,0,0,0.03280036,7.9185239,-6.4781385)">
      <path
         style="opacity:1"
         fill="#fefefe"
         d="m 931.5,615.5 c 2.333,0 4.667,0 7,0 2.333,0 4.667,0 7,0 0,44 0,88 0,132 -68.017,6.245 -121.85,36.912 -161.5,92 -21.169,31.053 -33.336,65.386 -36.5,103 -0.904,0.709 -1.237,1.709 -1,3 -43.667,0 -87.333,0 -131,0 0,-4 0,-8 0,-12 -0.105,-4.048 0.228,-8.048 1,-12 1.531,-4.75 2.198,-9.75 2,-15 1.619,-14.085 4.619,-27.751 9,-41 1.424,-2.015 2.09,-4.348 2,-7 9.543,-31.919 23.543,-61.752 42,-89.5 1.333,-0.667 2.667,-0.667 4,0 24.806,11.47 48.472,9.47 71,-6 20.634,-16.875 29.801,-38.708 27.5,-65.5 -1.302,-7.905 -3.802,-15.405 -7.5,-22.5 0.601,-1.605 1.601,-2.938 3,-4 44.765,-29.422 93.765,-47.255 147,-53.5 5.266,0.311 10.266,-0.355 15,-2 z"
         id="path9" />
    </g>
    <g
       id="g10"
       style="clip-rule:evenodd;fill-rule:evenodd;image-rendering:optimizeQuality;shape-rendering:geometricPrecision;text-rendering:geometricPrecision"
       transform="matrix(0.03280036,0,0,0.03280036,7.9185239,-6.4781385)">
      <path
         style="opacity:1"
         fill="#3d3d3d"
         d="m 983.5,615.5 c -3.333,0 -6.667,0 -10,0 -0.999,43.83 -1.332,87.83 -1,132 -0.999,-44.164 -1.332,-88.497 -1,-133 4.202,-0.317 8.202,0.017 12,1 z"
         id="path10" />
    </g>
    <g
       id="g11"
       style="clip-rule:evenodd;fill-rule:evenodd;image-rendering:optimizeQuality;shape-rendering:geometricPrecision;text-rendering:geometricPrecision"
       transform="matrix(0.03280036,0,0,0.03280036,7.9185239,-6.4781385)">
      <path
         style="opacity:1"
         fill="#dcdcdc"
         d="m 973.5,615.5 c 0,44 0,88 0,132 2.885,-0.306 5.552,0.027 8,1 -3.213,0.31 -6.213,-0.023 -9,-1 -0.332,-44.17 10e-4,-88.17 1,-132 z"
         id="path11" />
    </g>
    <g
       id="g12"
       style="clip-rule:evenodd;fill-rule:evenodd;image-rendering:optimizeQuality;shape-rendering:geometricPrecision;text-rendering:geometricPrecision"
       transform="matrix(0.03280036,0,0,0.03280036,7.9185239,-6.4781385)">
      <path
         style="opacity:1"
         fill="#b8b8b8"
         d="m 931.5,615.5 c -4.734,1.645 -9.734,2.311 -15,2 4.769,-1.389 9.769,-2.056 15,-2 z"
         id="path12" />
    </g>
    <g
       id="g13"
       style="clip-rule:evenodd;fill-rule:evenodd;image-rendering:optimizeQuality;shape-rendering:geometricPrecision;text-rendering:geometricPrecision"
       transform="matrix(0.03280036,0,0,0.03280036,7.9185239,-6.4781385)">
      <path
         style="opacity:1"
         fill="#cfcfcf"
         d="m 938.5,615.5 c 2.448,-0.973 5.115,-1.306 8,-1 0.332,44.503 -10e-4,88.836 -1,133 0,-44 0,-88 0,-132 -2.333,0 -4.667,0 -7,0 z"
         id="path13" />
    </g>
    <g
       id="g14"
       style="clip-rule:evenodd;fill-rule:evenodd;image-rendering:optimizeQuality;shape-rendering:geometricPrecision;text-rendering:geometricPrecision"
       transform="matrix(0.03280036,0,0,0.03280036,7.9185239,-6.4781385)">
      <path
         style="opacity:1"
         fill="#a2a2a2"
         d="m 983.5,748.5 c 2.687,-0.164 5.354,0.003 8,0.5 0.916,0.278 1.582,0.778 2,1.5 -3.54,-0.253 -6.873,-0.919 -10,-2 z"
         id="path14" />
    </g>
    <g
       id="g15"
       style="clip-rule:evenodd;fill-rule:evenodd;image-rendering:optimizeQuality;shape-rendering:geometricPrecision;text-rendering:geometricPrecision"
       transform="matrix(0.03280036,0,0,0.03280036,7.9185239,-6.4781385)">
      <path
         style="opacity:1"
         fill="#acacac"
         d="m 1007.5,752.5 c 2.65,-0.09 4.99,0.576 7,2 -2.65,0.09 -4.99,-0.576 -7,-2 z"
         id="path15" />
    </g>
    <g
       id="g16"
       style="clip-rule:evenodd;fill-rule:evenodd;image-rendering:optimizeQuality;shape-rendering:geometricPrecision;text-rendering:geometricPrecision"
       transform="matrix(0.03280036,0,0,0.03280036,7.9185239,-6.4781385)">
      <path
         style="opacity:1"
         fill="#fefefe"
         d="m 941.5,774.5 c 1.333,0 2.667,0 4,0 0,45.667 0,91.333 0,137 -17.063,5.73 -28.397,17.063 -34,34 -45.667,0 -91.333,0 -137,0 0,-2.667 0,-5.333 0,-8 10.437,-68.591 46.77,-118.091 109,-148.5 18.545,-8.075 37.878,-12.908 58,-14.5 z"
         id="path16" />
    </g>
    <g
       id="g17"
       style="clip-rule:evenodd;fill-rule:evenodd;image-rendering:optimizeQuality;shape-rendering:geometricPrecision;text-rendering:geometricPrecision"
       transform="matrix(0.03280036,0,0,0.03280036,7.9185239,-6.4781385)">
      <path
         style="opacity:1"
         fill="#3c3c3c"
         d="m 981.5,774.5 c -2.667,0 -5.333,0 -8,0 -0.999,45.497 -1.332,91.164 -1,137 -0.999,-45.83 -1.332,-91.83 -1,-138 3.542,-0.313 6.875,0.021 10,1 z"
         id="path17" />
    </g>
    <g
       id="g18"
       style="clip-rule:evenodd;fill-rule:evenodd;image-rendering:optimizeQuality;shape-rendering:geometricPrecision;text-rendering:geometricPrecision"
       transform="matrix(0.03280036,0,0,0.03280036,7.9185239,-6.4781385)">
      <path
         style="opacity:1"
         fill="#d1d1d1"
         d="m 941.5,774.5 c 1.419,-0.951 3.085,-1.284 5,-1 0.332,46.17 -10e-4,92.17 -1,138 0,-45.667 0,-91.333 0,-137 -1.333,0 -2.667,0 -4,0 z"
         id="path18" />
    </g>
    <g
       id="g19"
       style="clip-rule:evenodd;fill-rule:evenodd;image-rendering:optimizeQuality;shape-rendering:geometricPrecision;text-rendering:geometricPrecision"
       transform="matrix(0.03280036,0,0,0.03280036,7.9185239,-6.4781385)">
      <path
         style="opacity:1"
         fill="#dedede"
         d="m 973.5,774.5 c -0.328,46.072 0.005,92.072 1,138 -0.992,0.172 -1.658,-0.162 -2,-1 -0.332,-45.836 10e-4,-91.503 1,-137 z"
         id="path19" />
    </g>
    <g
       id="g20"
       style="clip-rule:evenodd;fill-rule:evenodd;image-rendering:optimizeQuality;shape-rendering:geometricPrecision;text-rendering:geometricPrecision"
       transform="matrix(0.03280036,0,0,0.03280036,7.9185239,-6.4781385)">
      <path
         style="opacity:1"
         fill="#ababab"
         d="m 629.5,858.5 c 0.09,2.652 -0.576,4.985 -2,7 -0.09,-2.652 0.576,-4.985 2,-7 z"
         id="path20" />
    </g>
    <g
       id="g21"
       style="clip-rule:evenodd;fill-rule:evenodd;image-rendering:optimizeQuality;shape-rendering:geometricPrecision;text-rendering:geometricPrecision"
       transform="matrix(0.03280036,0,0,0.03280036,7.9185239,-6.4781385)">
      <path
         style="opacity:1"
         fill="#adadad"
         d="m 1289.5,859.5 c 1.42,2.015 2.09,4.348 2,7 -1.42,-2.015 -2.09,-4.348 -2,-7 z"
         id="path21" />
    </g>
    <g
       id="g22"
       style="clip-rule:evenodd;fill-rule:evenodd;image-rendering:optimizeQuality;shape-rendering:geometricPrecision;text-rendering:geometricPrecision"
       transform="matrix(0.03280036,0,0,0.03280036,7.9185239,-6.4781385)">
      <path
         style="opacity:1"
         fill="#aaaaaa"
         d="m 1291.5,866.5 c 1.42,2.015 2.09,4.348 2,7 -1.42,-2.015 -2.09,-4.348 -2,-7 z"
         id="path22" />
    </g>
    <g
       id="g23"
       style="clip-rule:evenodd;fill-rule:evenodd;image-rendering:optimizeQuality;shape-rendering:geometricPrecision;text-rendering:geometricPrecision"
       transform="matrix(0.03280036,0,0,0.03280036,7.9185239,-6.4781385)">
      <path
         style="opacity:1"
         fill="#484848"
         d="m 1499.5,875.5 c 1.47,4.419 2.14,9.086 2,14 -1.47,-4.419 -2.14,-9.086 -2,-14 z"
         id="path23" />
    </g>
    <g
       id="g24"
       style="clip-rule:evenodd;fill-rule:evenodd;image-rendering:optimizeQuality;shape-rendering:geometricPrecision;text-rendering:geometricPrecision"
       transform="matrix(0.03280036,0,0,0.03280036,7.9185239,-6.4781385)">
      <path
         style="opacity:1"
         fill="#b3b3b3"
         d="m 618.5,906.5 c 0.198,5.25 -0.469,10.25 -2,15 -0.056,-5.231 0.611,-10.231 2,-15 z"
         id="path24" />
    </g>
    <g
       id="g25"
       style="clip-rule:evenodd;fill-rule:evenodd;image-rendering:optimizeQuality;shape-rendering:geometricPrecision;text-rendering:geometricPrecision"
       transform="matrix(0.03280036,0,0,0.03280036,7.9185239,-6.4781385)">
      <path
         style="opacity:1"
         fill="#5c5c5c"
         d="m 591.5,912.5 c -0.096,5.873 -0.763,11.54 -2,17 -0.179,-5.904 0.488,-11.571 2,-17 z"
         id="path25" />
    </g>
    <g
       id="g26"
       style="clip-rule:evenodd;fill-rule:evenodd;image-rendering:optimizeQuality;shape-rendering:geometricPrecision;text-rendering:geometricPrecision"
       transform="matrix(0.03280036,0,0,0.03280036,7.9185239,-6.4781385)">
      <path
         style="opacity:1"
         fill="#b7b7b7"
         d="m 449.5,914.5 c -0.216,10.338 -0.549,20.671 -1,31 0,0.333 0,0.667 0,1 -1.316,-10.703 -0.983,-21.37 1,-32 z"
         id="path26" />
    </g>
    <g
       id="g27"
       style="clip-rule:evenodd;fill-rule:evenodd;image-rendering:optimizeQuality;shape-rendering:geometricPrecision;text-rendering:geometricPrecision"
       transform="matrix(0.03280036,0,0,0.03280036,7.9185239,-6.4781385)">
      <path
         style="opacity:1"
         fill="#e0e0e0"
         d="m 588.5,944.5 c -46.321,1.995 -92.988,2.662 -140,2 0,-0.333 0,-0.667 0,-1 46.739,0.328 93.405,-0.005 140,-1 z"
         id="path27" />
    </g>
    <g
       id="g28"
       style="clip-rule:evenodd;fill-rule:evenodd;image-rendering:optimizeQuality;shape-rendering:geometricPrecision;text-rendering:geometricPrecision"
       transform="matrix(0.03280036,0,0,0.03280036,7.9185239,-6.4781385)">
      <path
         style="opacity:1"
         fill="#dadada"
         d="m 615.5,933.5 c 0,4 0,8 0,12 43.667,0 87.333,0 131,0 -0.237,-1.291 0.096,-2.291 1,-3 0,1.333 0,2.667 0,4 -44.333,0 -88.667,0 -133,0 -0.318,-4.532 0.015,-8.866 1,-13 z"
         id="path28" />
    </g>
    <g
       id="g29"
       style="clip-rule:evenodd;fill-rule:evenodd;image-rendering:optimizeQuality;shape-rendering:geometricPrecision;text-rendering:geometricPrecision"
       transform="matrix(0.03280036,0,0,0.03280036,7.9185239,-6.4781385)">
      <path
         style="opacity:1"
         fill="#dcdcdc"
         d="m 774.5,937.5 c 0,2.667 0,5.333 0,8 45.667,0 91.333,0 137,0 -45.83,0.999 -91.83,1.332 -138,1 -0.31,-3.213 0.023,-6.213 1,-9 z"
         id="path29" />
    </g>
    <g
       id="g30"
       style="clip-rule:evenodd;fill-rule:evenodd;image-rendering:optimizeQuality;shape-rendering:geometricPrecision;text-rendering:geometricPrecision"
       transform="matrix(0.03280036,0,0,0.03280036,7.9185239,-6.4781385)">
      <path
         style="opacity:1"
         fill="#dfdfdf"
         d="m 1006.5,944.5 c 45.93,0.995 91.93,1.328 138,1 -45.5,0.999 -91.16,1.332 -137,1 -0.84,-0.342 -1.17,-1.008 -1,-2 z"
         id="path30" />
    </g>
    <g
       id="g31"
       style="clip-rule:evenodd;fill-rule:evenodd;image-rendering:optimizeQuality;shape-rendering:geometricPrecision;text-rendering:geometricPrecision"
       transform="matrix(0.03280036,0,0,0.03280036,7.9185239,-6.4781385)">
      <path
         style="opacity:1"
         fill="#d1d1d1"
         d="m 1470.5,929.5 c 0.99,5.475 1.32,11.142 1,17 -47.33,0 -94.67,0 -142,0 0,-2.667 0,-5.333 0,-8 0.97,2.107 1.3,4.441 1,7 46.67,0 93.33,0 140,0 0,-5.333 0,-10.667 0,-16 z"
         id="path31" />
    </g>
    <g
       id="g32"
       style="clip-rule:evenodd;fill-rule:evenodd;image-rendering:optimizeQuality;shape-rendering:geometricPrecision;text-rendering:geometricPrecision"
       transform="matrix(0.03280036,0,0,0.03280036,7.9185239,-6.4781385)">
      <path
         style="opacity:1"
         fill="#3b3b3b"
         d="m 1144.5,940.5 c 0.97,2.107 1.3,4.441 1,7 -46.17,0.332 -92.17,-10e-4 -138,-1 45.84,0.332 91.5,-10e-4 137,-1 0,-1.667 0,-3.333 0,-5 z"
         id="path32" />
    </g>
    <g
       id="g33"
       style="clip-rule:evenodd;fill-rule:evenodd;image-rendering:optimizeQuality;shape-rendering:geometricPrecision;text-rendering:geometricPrecision"
       transform="matrix(0.03280036,0,0,0.03280036,7.9185239,-6.4781385)">
      <path
         style="opacity:1"
         fill="#3c3c3c"
         d="m 1303.5,938.5 c 0.98,2.787 1.31,5.787 1,9 -44.5,0.332 -88.84,-10e-4 -133,-1 44,0 88,0 132,0 0,-2.667 0,-5.333 0,-8 z"
         id="path33" />
    </g>
    <g
       id="g34"
       style="clip-rule:evenodd;fill-rule:evenodd;image-rendering:optimizeQuality;shape-rendering:geometricPrecision;text-rendering:geometricPrecision"
       transform="matrix(0.03280036,0,0,0.03280036,7.9185239,-6.4781385)">
      <path
         style="opacity:1"
         fill="#232323"
         d="m 1007.5,972.5 c 45.83,-0.999 91.83,-1.332 138,-1 0.31,3.871 -0.02,7.538 -1,11 0,-3 0,-6 0,-9 -45.5,-0.999 -91.16,-1.332 -137,-1 z"
         id="path34" />
    </g>
    <g
       id="g35"
       style="clip-rule:evenodd;fill-rule:evenodd;image-rendering:optimizeQuality;shape-rendering:geometricPrecision;text-rendering:geometricPrecision"
       transform="matrix(0.03280036,0,0,0.03280036,7.9185239,-6.4781385)">
      <path
         style="opacity:1"
         fill="#d0d0d0"
         d="m 588.5,975.5 c -46.449,-1.987 -93.115,-2.654 -140,-2 0,5 0,10 0,15 -0.988,-5.14 -1.321,-10.474 -1,-16 47,0 94,0 141,0 0,1 0,2 0,3 z"
         id="path35" />
    </g>
    <g
       id="g36"
       style="clip-rule:evenodd;fill-rule:evenodd;image-rendering:optimizeQuality;shape-rendering:geometricPrecision;text-rendering:geometricPrecision"
       transform="matrix(0.03280036,0,0,0.03280036,7.9185239,-6.4781385)">
      <path
         style="opacity:1"
         fill="#cdcdcd"
         d="m 747.5,974.5 c -43.928,-0.994 -87.928,-1.328 -132,-1 0,4 0,8 0,12 -0.985,-4.134 -1.318,-8.468 -1,-13 44.679,-0.661 89.013,0.005 133,2 z"
         id="path36" />
    </g>
    <g
       id="g37"
       style="clip-rule:evenodd;fill-rule:evenodd;image-rendering:optimizeQuality;shape-rendering:geometricPrecision;text-rendering:geometricPrecision"
       transform="matrix(0.03280036,0,0,0.03280036,7.9185239,-6.4781385)">
      <path
         style="opacity:1"
         fill="#d3d3d3"
         d="m 911.5,973.5 c -46.012,-0.662 -91.679,0.005 -137,2 -0.904,-0.709 -1.237,-1.709 -1,-3 46.17,-0.332 92.17,10e-4 138,1 z"
         id="path37" />
    </g>
    <g
       id="g38"
       style="clip-rule:evenodd;fill-rule:evenodd;image-rendering:optimizeQuality;shape-rendering:geometricPrecision;text-rendering:geometricPrecision"
       transform="matrix(0.03280036,0,0,0.03280036,7.9185239,-6.4781385)">
      <path
         style="opacity:1"
         fill="#d2d2d2"
         d="m 1007.5,972.5 c 45.84,-0.332 91.5,10e-4 137,1 -46.07,-0.328 -92.07,0.005 -138,1 -0.17,-0.992 0.16,-1.658 1,-2 z"
         id="path38" />
    </g>
    <g
       id="g39"
       style="clip-rule:evenodd;fill-rule:evenodd;image-rendering:optimizeQuality;shape-rendering:geometricPrecision;text-rendering:geometricPrecision"
       transform="matrix(0.03280036,0,0,0.03280036,7.9185239,-6.4781385)">
      <path
         style="opacity:1"
         fill="#c9c9c9"
         d="m 1303.5,983.5 c 0,-3.333 0,-6.667 0,-10 -44,0 -88,0 -132,0 0.31,2.885 -0.03,5.552 -1,8 0,-3 0,-6 0,-9 44.67,0 89.33,0 134,0 0.31,3.871 -0.02,7.538 -1,11 z"
         id="path39" />
    </g>
    <g
       id="g40"
       style="clip-rule:evenodd;fill-rule:evenodd;image-rendering:optimizeQuality;shape-rendering:geometricPrecision;text-rendering:geometricPrecision"
       transform="matrix(0.03280036,0,0,0.03280036,7.9185239,-6.4781385)">
      <path
         style="opacity:1"
         fill="#cccccc"
         d="m 1470.5,979.5 c 0,-2 0,-4 0,-6 -46.67,0 -93.33,0 -140,0 0.3,2.559 -0.03,4.893 -1,7 0,-2.667 0,-5.333 0,-8 47.33,0 94.67,0 142,0 0.3,2.559 -0.03,4.893 -1,7 z"
         id="path40" />
    </g>
    <g
       id="g41"
       style="clip-rule:evenodd;fill-rule:evenodd;image-rendering:optimizeQuality;shape-rendering:geometricPrecision;text-rendering:geometricPrecision"
       transform="matrix(0.03280036,0,0,0.03280036,7.9185239,-6.4781385)">
      <path
         style="opacity:1"
         fill="#fefefe"
         d="m 588.5,975.5 c 1.052,8.291 1.719,16.624 2,25 -0.124,5.57 0.543,10.9 2,16 2.151,10.28 4.151,20.61 6,31 -0.09,2.65 0.576,4.99 2,7 0.333,1.33 0.667,2.67 1,4 -0.09,2.65 0.576,4.99 2,7 42.407,128.7 128.407,212.87 258,252.5 26.882,7.09 54.216,11.26 82,12.5 1.987,46.45 2.654,93.12 2,140 -6.667,0 -13.333,0 -20,0 -27.859,-1.31 -55.192,-5.31 -82,-12 -2.015,-1.42 -4.348,-2.09 -7,-2 -143.383,-37.57 -251.883,-120.57 -325.5,-249 -37.16,-68.3 -57.993,-141.3 -62.5,-219 0,-5 0,-10 0,-15 46.885,-0.654 93.551,0.013 140,2 z"
         id="path41" />
    </g>
    <g
       id="g42"
       style="clip-rule:evenodd;fill-rule:evenodd;image-rendering:optimizeQuality;shape-rendering:geometricPrecision;text-rendering:geometricPrecision"
       transform="matrix(0.03280036,0,0,0.03280036,7.9185239,-6.4781385)">
      <path
         style="opacity:1"
         fill="#fefefe"
         d="m 747.5,974.5 c 0.333,3.333 0.667,6.667 1,10 -0.384,3.989 0.283,7.655 2,11 17.931,86.77 69.265,143.27 154,169.5 13.442,3.61 27.109,5.78 41,6.5 0,44 0,88 0,132 -2.667,0 -5.333,0 -8,0 -105.35,-8.08 -190.183,-53.75 -254.5,-137 -39.562,-53.84 -62.062,-114.17 -67.5,-181 0,-4 0,-8 0,-12 44.072,-0.328 88.072,0.006 132,1 z"
         id="path42" />
    </g>
    <g
       id="g43"
       style="clip-rule:evenodd;fill-rule:evenodd;image-rendering:optimizeQuality;shape-rendering:geometricPrecision;text-rendering:geometricPrecision"
       transform="matrix(0.03280036,0,0,0.03280036,7.9185239,-6.4781385)">
      <path
         style="opacity:1"
         fill="#fefefe"
         d="m 911.5,973.5 c 5.42,17.087 16.754,28.09 34,33 0,0.33 0,0.67 0,1 0,45.67 0,91.33 0,137 -2.667,0 -5.333,0 -8,0 -58.104,-7.96 -103.271,-36.29 -135.5,-85 -15.878,-25.8 -25.044,-53.8 -27.5,-84 45.321,-1.995 90.988,-2.662 137,-2 z"
         id="path43" />
    </g>
    <g
       id="g44"
       style="clip-rule:evenodd;fill-rule:evenodd;image-rendering:optimizeQuality;shape-rendering:geometricPrecision;text-rendering:geometricPrecision"
       transform="matrix(0.03280036,0,0,0.03280036,7.9185239,-6.4781385)">
      <path
         style="opacity:1"
         fill="#fefefe"
         d="m 1144.5,973.5 c 0,3 0,6 0,9 -14.76,84.6 -63.76,137.77 -147,159.5 -7.577,1.71 -15.243,2.54 -23,2.5 -0.999,-45.5 -1.332,-91.16 -1,-137 16.486,-5.43 27.49,-16.429 33,-33 45.93,-0.995 91.93,-1.328 138,-1 z"
         id="path44" />
    </g>
    <g
       id="g45"
       style="clip-rule:evenodd;fill-rule:evenodd;image-rendering:optimizeQuality;shape-rendering:geometricPrecision;text-rendering:geometricPrecision"
       transform="matrix(0.03280036,0,0,0.03280036,7.9185239,-6.4781385)">
      <path
         style="opacity:1"
         fill="#fefefe"
         d="m 1303.5,983.5 c -2.02,32 -8.52,63 -19.5,93 -20.7,-1.64 -37.37,5.69 -50,22 -11.74,21.83 -9.57,42.16 6.5,61 -64.82,88.09 -152.15,136.09 -262,144 -1.667,0 -3.333,0 -5,0 -0.167,-43.67 0,-87.33 0.5,-131 2.607,-0.62 5.107,-1.29 7.5,-2 87.09,-12.28 146.59,-59.28 178.5,-141 3.77,-11.8 6.6,-23.8 8.5,-36 0.72,-0.418 1.22,-1.084 1.5,-2 0.5,-2.646 0.66,-5.313 0.5,-8 0,-0.667 0,-1.333 0,-2 0.97,-2.448 1.31,-5.115 1,-8 44,0 88,0 132,0 0,3.333 0,6.667 0,10 z"
         id="path45" />
    </g>
    <g
       id="g46"
       style="clip-rule:evenodd;fill-rule:evenodd;image-rendering:optimizeQuality;shape-rendering:geometricPrecision;text-rendering:geometricPrecision"
       transform="matrix(0.03280036,0,0,0.03280036,7.9185239,-6.4781385)">
      <path
         style="opacity:1"
         fill="#fefefe"
         d="m 1470.5,979.5 c -7.67,147.82 -66.67,270.65 -177,368.5 -88.66,75.05 -191.32,115.88 -308,122.5 -4,0 -8,0 -12,0 -0.328,-46.74 0.005,-93.41 1,-140 120.57,-7.94 216.57,-60.28 288,-157 16.26,1.58 30.93,-2.59 44,-12.5 20.88,-23.77 21.22,-47.77 1,-72 12.44,-35.14 19.77,-71.3 22,-108.5 0.97,-2.107 1.3,-4.441 1,-7 46.67,0 93.33,0 140,0 0,2 0,4 0,6 z"
         id="path46" />
    </g>
    <g
       id="g47"
       style="clip-rule:evenodd;fill-rule:evenodd;image-rendering:optimizeQuality;shape-rendering:geometricPrecision;text-rendering:geometricPrecision"
       transform="matrix(0.03280036,0,0,0.03280036,7.9185239,-6.4781385)">
      <path
         style="opacity:1"
         fill="#a0a0a0"
         d="m 1170.5,983.5 c 0.16,2.687 0,5.354 -0.5,8 -0.28,0.916 -0.78,1.582 -1.5,2 0.25,-3.54 0.92,-6.873 2,-10 z"
         id="path47" />
    </g>
    <g
       id="g48"
       style="clip-rule:evenodd;fill-rule:evenodd;image-rendering:optimizeQuality;shape-rendering:geometricPrecision;text-rendering:geometricPrecision"
       transform="matrix(0.03280036,0,0,0.03280036,7.9185239,-6.4781385)">
      <path
         style="opacity:1"
         fill="#989898"
         d="m 748.5,984.5 c 1.025,3.474 1.692,7.14 2,11 -1.717,-3.345 -2.384,-7.011 -2,-11 z"
         id="path48" />
    </g>
    <g
       id="g49"
       style="clip-rule:evenodd;fill-rule:evenodd;image-rendering:optimizeQuality;shape-rendering:geometricPrecision;text-rendering:geometricPrecision"
       transform="matrix(0.03280036,0,0,0.03280036,7.9185239,-6.4781385)">
      <path
         style="opacity:1"
         fill="#a1a1a1"
         d="m 590.5,1000.5 c 1.306,5.12 1.973,10.45 2,16 -1.457,-5.1 -2.124,-10.43 -2,-16 z"
         id="path49" />
    </g>
    <g
       id="g50"
       style="clip-rule:evenodd;fill-rule:evenodd;image-rendering:optimizeQuality;shape-rendering:geometricPrecision;text-rendering:geometricPrecision"
       transform="matrix(0.03280036,0,0,0.03280036,7.9185239,-6.4781385)">
      <path
         style="opacity:1"
         fill="#212121"
         d="m 945.5,1007.5 c 0,-0.33 0,-0.67 0,-1 1.333,22.82 2,45.99 2,69.5 0,23.34 -0.333,46.5 -1,69.5 0.332,-46.17 -10e-4,-92.17 -1,-138 z"
         id="path50" />
    </g>
    <g
       id="g51"
       style="clip-rule:evenodd;fill-rule:evenodd;image-rendering:optimizeQuality;shape-rendering:geometricPrecision;text-rendering:geometricPrecision"
       transform="matrix(0.03280036,0,0,0.03280036,7.9185239,-6.4781385)">
      <path
         style="opacity:1"
         fill="#dfdfdf"
         d="m 973.5,1007.5 c -0.332,45.84 10e-4,91.5 1,137 -0.06,0.54 -0.393,0.88 -1,1 -1.331,-46.16 -1.331,-92.16 0,-138 z"
         id="path51" />
    </g>
    <g
       id="g52"
       style="clip-rule:evenodd;fill-rule:evenodd;image-rendering:optimizeQuality;shape-rendering:geometricPrecision;text-rendering:geometricPrecision"
       transform="matrix(0.03280036,0,0,0.03280036,7.9185239,-6.4781385)">
      <path
         style="opacity:1"
         fill="#d0d0d0"
         d="m 945.5,1007.5 c 0.999,45.83 1.332,91.83 1,138 -3.213,0.31 -6.213,-0.02 -9,-1 2.667,0 5.333,0 8,0 0,-45.67 0,-91.33 0,-137 z"
         id="path52" />
    </g>
    <g
       id="g53"
       style="clip-rule:evenodd;fill-rule:evenodd;image-rendering:optimizeQuality;shape-rendering:geometricPrecision;text-rendering:geometricPrecision"
       transform="matrix(0.03280036,0,0,0.03280036,7.9185239,-6.4781385)">
      <path
         style="opacity:1"
         fill="#b1b1b1"
         d="m 416.5,1027.5 c 1.561,5.44 2.561,11.11 3,17 -2.167,-5.33 -3.167,-11 -3,-17 z"
         id="path53" />
    </g>
    <g
       id="g54"
       style="clip-rule:evenodd;fill-rule:evenodd;image-rendering:optimizeQuality;shape-rendering:geometricPrecision;text-rendering:geometricPrecision"
       transform="matrix(0.03280036,0,0,0.03280036,7.9185239,-6.4781385)">
      <path
         style="opacity:1"
         fill="#a7a7a7"
         d="m 598.5,1047.5 c 1.424,2.01 2.09,4.35 2,7 -1.424,-2.01 -2.09,-4.35 -2,-7 z"
         id="path54" />
    </g>
    <g
       id="g55"
       style="clip-rule:evenodd;fill-rule:evenodd;image-rendering:optimizeQuality;shape-rendering:geometricPrecision;text-rendering:geometricPrecision"
       transform="matrix(0.03280036,0,0,0.03280036,7.9185239,-6.4781385)">
      <path
         style="opacity:1"
         fill="#a4a4a4"
         d="m 601.5,1058.5 c 1.424,2.01 2.09,4.35 2,7 -1.424,-2.01 -2.09,-4.35 -2,-7 z"
         id="path55" />
    </g>
    <g
       id="g56"
       style="clip-rule:evenodd;fill-rule:evenodd;image-rendering:optimizeQuality;shape-rendering:geometricPrecision;text-rendering:geometricPrecision"
       transform="matrix(0.03280036,0,0,0.03280036,7.9185239,-6.4781385)">
      <path
         style="opacity:1"
         fill="#595959"
         d="m 751.5,1111.5 c -5.37,-0.11 -10.703,0.23 -16,1 2.856,-1.51 6.023,-2.17 9.5,-2 2.361,0 4.527,0.34 6.5,1 z"
         id="path56" />
    </g>
    <g
       id="g57"
       style="clip-rule:evenodd;fill-rule:evenodd;image-rendering:optimizeQuality;shape-rendering:geometricPrecision;text-rendering:geometricPrecision"
       transform="matrix(0.03280036,0,0,0.03280036,7.9185239,-6.4781385)">
      <path
         style="opacity:1"
         fill="#030303"
         d="m 751.5,1111.5 c 17.871,5.39 25.371,17.39 22.5,36 -6.509,17.34 -19.009,24.51 -37.5,21.5 -15.473,-6.77 -22.307,-18.61 -20.5,-35.5 2.916,-10.41 9.416,-17.41 19.5,-21 5.297,-0.77 10.63,-1.11 16,-1 z"
         id="path57" />
    </g>
    <g
       id="g58"
       style="clip-rule:evenodd;fill-rule:evenodd;image-rendering:optimizeQuality;shape-rendering:geometricPrecision;text-rendering:geometricPrecision"
       transform="matrix(0.03280036,0,0,0.03280036,7.9185239,-6.4781385)">
      <path
         style="opacity:1"
         fill="#d8d8d8"
         d="m 981.5,1170.5 c -2.393,0.71 -4.893,1.38 -7.5,2 -0.5,43.67 -0.667,87.33 -0.5,131 1.667,0 3.333,0 5,0 -1.765,0.96 -3.765,1.29 -6,1 0,-44.67 0,-89.33 0,-134 3,0 6,0 9,0 z"
         id="path58" />
    </g>
    <g
       id="g59"
       style="clip-rule:evenodd;fill-rule:evenodd;image-rendering:optimizeQuality;shape-rendering:geometricPrecision;text-rendering:geometricPrecision"
       transform="matrix(0.03280036,0,0,0.03280036,7.9185239,-6.4781385)">
      <path
         style="opacity:1"
         fill="#d2d2d2"
         d="m 945.5,1171.5 c 0.999,44.16 1.332,88.5 1,133 -3.213,0.31 -6.213,-0.02 -9,-1 2.667,0 5.333,0 8,0 0,-44 0,-88 0,-132 z"
         id="path59" />
    </g>
    <g
       id="g60"
       style="clip-rule:evenodd;fill-rule:evenodd;image-rendering:optimizeQuality;shape-rendering:geometricPrecision;text-rendering:geometricPrecision"
       transform="matrix(0.03280036,0,0,0.03280036,7.9185239,-6.4781385)">
      <path
         style="opacity:1"
         fill="#cfcfcf"
         d="m 943.5,1330.5 c 1,0 2,0 3,0 0,47 0,94 0,141 -7.187,0.32 -14.187,-0.01 -21,-1 6.667,0 13.333,0 20,0 0.654,-46.88 -0.013,-93.55 -2,-140 z"
         id="path60" />
    </g>
    <g
       id="g61"
       style="clip-rule:evenodd;fill-rule:evenodd;image-rendering:optimizeQuality;shape-rendering:geometricPrecision;text-rendering:geometricPrecision"
       transform="matrix(0.03280036,0,0,0.03280036,7.9185239,-6.4781385)">
      <path
         style="opacity:1"
         fill="#dddddd"
         d="m 974.5,1330.5 c -0.995,46.59 -1.328,93.26 -1,140 4,0 8,0 12,0 -4.134,0.98 -8.468,1.32 -13,1 -0.662,-47.35 0.005,-94.35 2,-141 z"
         id="path61" />
    </g>
    <g
       id="g62"
       style="clip-rule:evenodd;fill-rule:evenodd;image-rendering:optimizeQuality;shape-rendering:geometricPrecision;text-rendering:geometricPrecision"
       transform="matrix(0.03280036,0,0,0.03280036,7.9185239,-6.4781385)">
      <path
         style="opacity:1"
         fill="#aaaaaa"
         d="m 836.5,1456.5 c 2.652,-0.09 4.985,0.58 7,2 -2.652,0.09 -4.985,-0.58 -7,-2 z"
         id="path62" />
    </g>
    <text
       xml:space="preserve"
       style="font-size:21.1667px;font-family:Arial;-inkscape-font-specification:Arial;text-align:center;writing-mode:lr-tb;direction:ltr;text-anchor:middle;fill:#000000;stroke-width:0.349999"
       x="108.82364"
       y="30.374357"
       id="text1"><tspan
         sodipodi:role="line"
         id="tspan1"
         style="font-style:normal;font-variant:normal;font-weight:bold;font-stretch:normal;font-size:21.1667px;font-family:'Roboto Slab';-inkscape-font-specification:'Roboto Slab';stroke-width:0.35"
         x="108.82364"
         y="30.374357">CytoScan</tspan></text>
  </g>
</svg>
